<svg id="Capa_1" enable-background="new 0 0 512 512" height="512" viewBox="0 0 512 512" width="512"
     xmlns="http://www.w3.org/2000/svg">
    <g>
        <path d="m256 0c-141.385 0-256 114.615-256 256s114.615 256 256 256 256-114.615 256-256-114.615-256-256-256zm0 308.033c-28.737 0-52.033-23.296-52.033-52.033s23.296-52.033 52.033-52.033 52.033 23.296 52.033 52.033-23.296 52.033-52.033 52.033z"
              fill="#e4f6ff"/>
        <path d="m256 162.341c-51.726 0-93.659 41.932-93.659 93.659 0 51.726 41.932 93.659 93.659 93.659s93.659-41.933 93.659-93.659-41.933-93.659-93.659-93.659zm0 145.692c-28.737 0-52.033-23.296-52.033-52.033s23.296-52.033 52.033-52.033 52.033 23.296 52.033 52.033-23.296 52.033-52.033 52.033z"
              fill="#4a80aa"/>
        <g>
            <path d="m413.84 174.947c-2.702 0-5.326-1.42-6.743-3.944-7.702-13.711-17.299-26.355-28.522-37.577-11.222-11.223-23.866-20.82-37.577-28.522-3.72-2.09-5.042-6.8-2.953-10.52 2.09-3.722 6.802-5.042 10.52-2.953 14.943 8.394 28.716 18.847 40.938 31.067 12.22 12.221 22.673 25.995 31.067 40.938 2.09 3.72.768 8.431-2.953 10.52-1.196.672-2.496.991-3.777.991z"
                  fill="#d3effb"/>
        </g>
        <g>
            <path d="m442.869 158.619c-2.702 0-5.325-1.42-6.743-3.943-9.183-16.346-20.624-31.419-34.004-44.798-13.379-13.38-28.452-24.821-44.798-34.004-3.72-2.091-5.041-6.801-2.952-10.521 2.091-3.72 6.799-5.041 10.521-2.952 17.576 9.875 33.779 22.172 48.156 36.549s26.674 30.579 36.549 48.156c2.09 3.72.769 8.431-2.952 10.521-1.196.673-2.495.992-3.777.992z"
                  fill="#d3effb"/>
        </g>
        <g>
            <path d="m167.213 421.56c-1.281 0-2.58-.319-3.777-.991-14.943-8.393-28.716-18.846-40.937-31.067-12.222-12.223-22.675-25.996-31.067-40.938-2.09-3.72-.768-8.431 2.953-10.52 3.718-2.091 8.429-.769 10.52 2.953 7.701 13.71 17.297 26.353 28.521 37.578 11.223 11.222 23.867 20.819 37.579 28.521 3.72 2.09 5.042 6.8 2.952 10.52-1.418 2.525-4.042 3.944-6.744 3.944z"
                  fill="#d3effb"/>
        </g>
        <g>
            <path d="m150.884 450.59c-1.282 0-2.581-.319-3.778-.991-17.576-9.876-33.778-22.173-48.155-36.549-14.378-14.379-26.675-30.58-36.549-48.156-2.09-3.72-.769-8.431 2.951-10.521s8.431-.768 10.521 2.952c9.184 16.345 20.624 31.418 34.004 44.799 13.379 13.378 28.451 24.819 44.798 34.003 3.72 2.091 5.041 6.801 2.951 10.521-1.418 2.522-4.041 3.942-6.743 3.942z"
                  fill="#d3effb"/>
        </g>
    </g>
</svg>