<svg id="Capa_1" enable-background="new 0 0 512 512" height="512" viewBox="0 0 512 512" width="512"
     xmlns="http://www.w3.org/2000/svg">

    <path d="m138.003 145.88c-1.85-1.467-4.269-2.007-6.563-1.468l-66.602 15.61c-3.493.818-5.963 3.935-5.963 7.522v47.047c-2.766-1.092-5.775-1.699-8.924-1.699-13.441 0-24.377 10.936-24.377 24.377s10.936 24.376 24.377 24.376 24.377-10.936 24.377-24.376v-63.6l51.149-11.988v37.3c-2.766-1.092-5.775-1.699-8.924-1.699-13.441 0-24.377 10.936-24.377 24.377s10.936 24.376 24.377 24.376 24.377-10.936 24.377-24.376v-69.724c0-2.36-1.078-4.59-2.927-6.055zm-88.052 100.312c-4.921 0-8.924-4.003-8.924-8.924s4.004-8.925 8.924-8.925 8.924 4.004 8.924 8.925-4.003 8.924-8.924 8.924zm66.602-15.61c-4.921 0-8.924-4.003-8.924-8.924s4.004-8.925 8.924-8.925 8.924 4.004 8.924 8.925-4.004 8.924-8.924 8.924z"
          fill="#9d66d5"/>

</svg>